<svg width="21" height="22" viewBox="0 0 21 22" fill="none" xmlns="http://www.w3.org/2000/svg">
<path d="M10.5 2.2C9.26232 2.2 8.07534 2.66357 7.20017 3.48873C6.325 4.31389 5.83333 5.43305 5.83333 6.6C5.83333 7.76695 6.325 8.88611 7.20017 9.71127C8.07534 10.5364 9.26232 11 10.5 11C11.7377 11 12.9247 10.5364 13.7998 9.71127C14.675 8.88611 15.1667 7.76695 15.1667 6.6C15.1667 5.43305 14.675 4.31389 13.7998 3.48873C12.9247 2.66357 11.7377 2.2 10.5 2.2ZM3.5 6.6C3.5 4.84957 4.2375 3.17084 5.55025 1.9331C6.86301 0.695355 8.64348 0 10.5 0C12.3565 0 14.137 0.695355 15.4497 1.9331C16.7625 3.17084 17.5 4.84957 17.5 6.6C17.5 8.35043 16.7625 10.0292 15.4497 11.2669C14.137 12.5046 12.3565 13.2 10.5 13.2C8.64348 13.2 6.86301 12.5046 5.55025 11.2669C4.2375 10.0292 3.5 8.35043 3.5 6.6ZM5.83333 17.6C4.90508 17.6 4.01484 17.9477 3.35846 18.5665C2.70208 19.1854 2.33333 20.0248 2.33333 20.9C2.33333 21.1917 2.21042 21.4715 1.99162 21.6778C1.77283 21.8841 1.47609 22 1.16667 22C0.857247 22 0.560501 21.8841 0.341709 21.6778C0.122916 21.4715 0 21.1917 0 20.9C0 19.4413 0.614582 18.0424 1.70854 17.0109C2.80251 15.9795 4.28624 15.4 5.83333 15.4H15.1667C16.7138 15.4 18.1975 15.9795 19.2915 17.0109C20.3854 18.0424 21 19.4413 21 20.9C21 21.1917 20.8771 21.4715 20.6583 21.6778C20.4395 21.8841 20.1428 22 19.8333 22C19.5239 22 19.2272 21.8841 19.0084 21.6778C18.7896 21.4715 18.6667 21.1917 18.6667 20.9C18.6667 20.0248 18.2979 19.1854 17.6415 18.5665C16.9852 17.9477 16.0949 17.6 15.1667 17.6H5.83333Z" fill="#838383"/>
</svg>
