<svg width="30" height="32" viewBox="0 0 30 32" fill="none" xmlns="http://www.w3.org/2000/svg">
<path d="M12.0074 3.20032C9.61896 3.20032 7.32837 4.21242 5.6395 6.01398C3.95064 7.81554 3.00184 10.259 3.00184 12.8068C3.00184 15.3546 3.95064 17.798 5.6395 19.5996C7.32837 21.4011 9.61896 22.4132 12.0074 22.4132C14.3958 22.4132 16.6864 21.4011 18.3752 19.5996C20.0641 17.798 21.0129 15.3546 21.0129 12.8068C21.0129 10.259 20.0641 7.81554 18.3752 6.01398C16.6864 4.21242 14.3958 3.20032 12.0074 3.20032ZM7.41699e-08 12.8068C0.000273657 10.7684 0.456608 8.75949 1.33108 6.94706C2.20555 5.13463 3.4729 3.57101 5.0278 2.38615C6.5827 1.20128 8.38024 0.429391 10.271 0.134628C12.1618 -0.160135 14.0913 0.030742 15.899 0.691395C17.7068 1.35205 19.3406 2.4634 20.6647 3.93308C21.9888 5.40276 22.965 7.18833 23.5121 9.14139C24.0592 11.0945 24.1614 13.1586 23.8103 15.1623C23.4591 17.166 22.6648 19.0513 21.4932 20.6616L29.5787 29.2866C29.8521 29.5886 30.0034 29.993 29.9999 30.4128C29.9965 30.8326 29.8387 31.2342 29.5604 31.5311C29.2821 31.8279 28.9057 31.9963 28.5121 31.9999C28.1186 32.0036 27.7394 31.8422 27.4564 31.5506L19.3709 22.9256C17.596 24.3955 15.47 25.3047 13.2348 25.5497C10.9995 25.7947 8.74466 25.3658 6.7266 24.3116C4.70855 23.2574 3.00828 21.6203 1.81915 19.5865C0.630026 17.5527 -0.000249634 15.2037 7.41699e-08 12.8068V12.8068Z" fill="#0D0D0D"/>
</svg>
