<svg width="146" height="146" viewBox="0 0 146 146" fill="none" xmlns="http://www.w3.org/2000/svg">
<g clip-path="url(#clip0_343_216)">
<path d="M73 2.76209e-06C58.562 2.76209e-06 44.4482 4.28138 32.4434 12.3027C20.4386 20.3241 11.082 31.7251 5.55683 45.0641C0.0316297 58.4031 -1.41401 73.081 1.40271 87.2416C4.21943 101.402 11.172 114.41 21.3812 124.619C31.5905 134.828 44.5978 141.781 58.7584 144.597C72.9191 147.414 87.5969 145.968 100.936 140.443C114.275 134.918 125.676 125.561 133.697 113.557C141.719 101.552 146 87.438 146 73C146.003 63.4128 144.116 53.919 140.449 45.061C136.781 36.203 131.404 28.1545 124.625 21.3753C117.845 14.5961 109.797 9.21908 100.939 5.55143C92.0811 1.88377 82.5873 -0.00263482 73 2.76209e-06ZM73 31.9375C78.4143 31.9375 83.707 33.543 88.2088 36.551C92.7106 39.559 96.2193 43.8344 98.2912 48.8365C100.363 53.8387 100.905 59.3429 99.849 64.6531C98.7928 69.9633 96.1855 74.8411 92.3571 78.6695C88.5286 82.498 83.6509 85.1052 78.3406 86.1615C73.0304 87.2178 67.5262 86.6757 62.5241 84.6037C57.522 82.5318 53.2466 79.023 50.2386 74.5212C47.2305 70.0194 45.625 64.7268 45.625 59.3125C45.6202 55.7162 46.325 52.1543 47.699 48.8309C49.0731 45.5074 51.0893 42.4877 53.6323 39.9447C56.1752 37.4018 59.1949 35.3855 62.5184 34.0115C65.8419 32.6375 69.4037 31.9327 73 31.9375ZM73 132.312C64.1117 132.313 55.3373 130.312 47.3282 126.458C39.3192 122.603 32.281 116.994 26.7363 110.048C40.3818 100.772 56.5005 95.8124 73 95.8124C89.4996 95.8124 105.618 100.772 119.264 110.048C113.719 116.994 106.681 122.603 98.6718 126.458C90.6627 130.312 81.8884 132.313 73 132.312Z" fill="#A1C298"/>
</g>
<defs>
<clipPath id="clip0_343_216">
<rect width="146" height="146" fill="white"/>
</clipPath>
</defs>
</svg>
