<svg width="31" height="36" viewBox="0 0 31 36" fill="none" xmlns="http://www.w3.org/2000/svg">
<path d="M9.73364 30.4039L1.91021 30.3969C1.56553 30.3969 1.23518 30.2609 0.991455 30.0172C0.747733 29.7735 0.610596 29.4408 0.610596 29.0961C0.610596 28.7514 0.747733 28.4211 0.991455 28.1773C1.23518 27.9336 1.56553 27.7977 1.91021 27.7977H4.52231V17.3984C4.52847 15.0817 5.30701 12.8324 6.73364 11.007C8.16028 9.18164 10.1542 7.88368 12.4008 7.31797C12.3865 7.21057 12.3797 7.1029 12.3797 6.99454C12.3944 6.30964 12.6765 5.65732 13.1661 5.17813C13.6556 4.69894 14.3127 4.43047 14.9977 4.43047C15.6828 4.43047 16.341 4.69894 16.8305 5.17813C17.3201 5.65732 17.6022 6.30964 17.6168 6.99454C17.6162 7.10287 17.6095 7.21051 17.5958 7.31797C19.8415 7.8843 21.8341 9.18394 23.2594 11.0094C24.6848 12.8348 25.4611 15.0824 25.4661 17.3984V27.7977H28.0864C28.4311 27.7977 28.7614 27.9336 29.0051 28.1773C29.2489 28.4211 29.386 28.7514 29.386 29.0961C29.386 29.4408 29.2489 29.7735 29.0051 30.0172C28.7614 30.2609 28.4311 30.3969 28.0864 30.3969H20.1329C20.1338 31.7761 19.5863 33.0983 18.6118 34.0742C17.6372 35.0501 16.3148 35.599 14.9356 35.6C13.5564 35.601 12.2342 35.0535 11.2583 34.0789C10.2824 33.1044 9.73343 31.7831 9.73247 30.4039H9.73364ZM14.9309 33.0008C15.6203 33.0005 16.2813 32.7281 16.7696 32.2414C17.2578 31.7547 17.5334 31.0933 17.536 30.4039L12.3329 30.3969C12.3322 31.0867 12.6051 31.7484 13.0922 32.2367C13.5794 32.725 14.2411 32.9998 14.9309 33.0008V33.0008ZM22.8504 27.7977V17.3984C22.8404 15.3498 22.0293 13.3859 20.5899 11.9281C19.1505 10.4703 17.1972 9.63448 15.1489 9.59844H14.8383C12.7901 9.63478 10.8366 10.4704 9.39731 11.9281C7.95798 13.3859 7.14711 15.3499 7.13677 17.3984V27.7977H22.8504Z" fill="#2B2B2B"/>
</svg>
