<svg width="26" height="23" viewBox="0 0 26 23" fill="none" xmlns="http://www.w3.org/2000/svg">
<mask id="mask0_515_388" style="mask-type:luminance" maskUnits="userSpaceOnUse" x="0" y="0" width="26" height="23">
<path d="M0.208008 0H25.416V23H0.208008V0Z" fill="white"/>
</mask>
<g mask="url(#mask0_515_388)">
<path d="M21.5809 3.67822H4.43948C3.60416 3.67822 2.927 4.29607 2.927 5.05822C2.927 5.82038 3.60416 6.43822 4.43948 6.43822H21.5809C22.4162 6.43822 23.0934 5.82038 23.0934 5.05822C23.0934 4.29607 22.4162 3.67822 21.5809 3.67822Z" fill="#2B2B2B"/>
<path d="M21.5809 10.1189H4.43948C3.60416 10.1189 2.927 10.7367 2.927 11.4989C2.927 12.261 3.60416 12.8789 4.43948 12.8789H21.5809C22.4162 12.8789 23.0934 12.261 23.0934 11.4989C23.0934 10.7367 22.4162 10.1189 21.5809 10.1189Z" fill="#2B2B2B"/>
<path d="M21.5809 16.5596H4.43948C3.60416 16.5596 2.927 17.1774 2.927 17.9396C2.927 18.7017 3.60416 19.3196 4.43948 19.3196H21.5809C22.4162 19.3196 23.0934 18.7017 23.0934 17.9396C23.0934 17.1774 22.4162 16.5596 21.5809 16.5596Z" fill="#2B2B2B"/>
</g>
</svg>
