<svg width="36" height="36" viewBox="0 0 36 36" fill="none" xmlns="http://www.w3.org/2000/svg">
<g clip-path="url(#clip0_502_366)">
<g clip-path="url(#clip1_502_366)">
<circle cx="18" cy="18" r="18" fill="white"/>
<path d="M18 0C14.4399 0 10.9598 1.05568 7.99974 3.03355C5.03966 5.01141 2.73255 7.82263 1.37018 11.1117C0.00779906 14.4008 -0.348661 18.02 0.345873 21.5116C1.04041 25.0033 2.75474 28.2106 5.27209 30.7279C7.78943 33.2453 10.9967 34.9596 14.4884 35.6541C17.98 36.3487 21.5992 35.9922 24.8883 34.6298C28.1774 33.2675 30.9886 30.9604 32.9665 28.0003C34.9443 25.0402 36 21.5601 36 18C36 13.2261 34.1036 8.64773 30.7279 5.27208C27.3523 1.89642 22.7739 0 18 0ZM18 7.875C19.335 7.875 20.6401 8.27088 21.7501 9.01258C22.8601 9.75428 23.7253 10.8085 24.2362 12.0419C24.7471 13.2753 24.8808 14.6325 24.6203 15.9419C24.3599 17.2512 23.717 18.454 22.773 19.398C21.829 20.342 20.6262 20.9849 19.3169 21.2453C18.0075 21.5058 16.6503 21.3721 15.4169 20.8612C14.1835 20.3503 13.1293 19.4851 12.3876 18.3751C11.6459 17.2651 11.25 15.96 11.25 14.625C11.2488 13.7382 11.4226 12.86 11.7614 12.0405C12.1002 11.221 12.5974 10.4764 13.2244 9.84939C13.8514 9.22236 14.596 8.7252 15.4155 8.3864C16.235 8.0476 17.1133 7.87382 18 7.875ZM18 32.625C15.8084 32.6251 13.6448 32.1317 11.67 31.1813C9.69516 30.2309 7.95973 28.8479 6.59251 27.135C9.9572 24.848 13.9316 23.6251 18 23.6251C22.0684 23.6251 26.0428 24.848 29.4075 27.135C28.0403 28.8479 26.3049 30.2309 24.33 31.1813C22.3552 32.1317 20.1916 32.6251 18 32.625Z" fill="#A1C298"/>
</g>
</g>
<defs>
<clipPath id="clip0_502_366">
<rect width="36" height="36" fill="white"/>
</clipPath>
<clipPath id="clip1_502_366">
<rect width="36" height="36" fill="white"/>
</clipPath>
</defs>
</svg>
