<svg width="16" height="17" viewBox="0 0 16 17" fill="none" xmlns="http://www.w3.org/2000/svg">
<path d="M9.16267 8.58821H16V1.75221C15.9893 0.238881 15.1053 -0.125119 14.036 0.945548L12.4973 2.48955C11.144 1.42955 9.488 0.849548 7.74267 0.849548C5.676 0.849548 3.73067 1.65488 2.27067 3.11755C0.805333 4.57355 0 6.52155 0 8.58821C0 10.6589 0.805334 12.6042 2.268 14.0642C3.73067 15.5269 5.67467 16.3335 7.74267 16.3335C9.80933 16.3335 11.7547 15.5269 13.2173 14.0629C13.612 13.6669 13.9613 13.2349 14.2573 12.7762C14.72 12.0549 14.5107 11.0962 13.7907 10.6362C13.072 10.1749 12.1133 10.3842 11.652 11.1029C11.4747 11.3789 11.2627 11.6362 11.028 11.8762C10.1493 12.7535 8.98267 13.2362 7.74267 13.2362C6.50267 13.2362 5.336 12.7549 4.45733 11.8762C3.58133 10.9989 3.09733 9.83222 3.09733 8.58955C3.09733 7.34955 3.58 6.18288 4.45733 5.30821C5.336 4.43088 6.50267 3.94688 7.74267 3.94688C8.66 3.94688 9.53733 4.21488 10.288 4.70955L8.35733 6.64421C7.28667 7.71355 7.65067 8.58821 9.16267 8.58821Z" fill="white"/>
</svg>
