<svg width="64" height="64" viewBox="0 0 64 64" fill="none" xmlns="http://www.w3.org/2000/svg">
<g clip-path="url(#clip0_401_1203)">
<path d="M38.6908 25.32C38.5925 25.2211 38.4756 25.1427 38.3469 25.0892C38.2182 25.0357 38.0802 25.0082 37.9408 25.0082C37.8014 25.0082 37.6634 25.0357 37.5347 25.0892C37.406 25.1427 37.2891 25.2211 37.1908 25.32L31.9978 30.502L26.8058 25.309C26.6069 25.11 26.3371 24.9983 26.0558 24.9983C25.7745 24.9983 25.5047 25.11 25.3058 25.309C25.1069 25.5079 24.9951 25.7776 24.9951 26.059C24.9951 26.3403 25.1069 26.61 25.3058 26.809L30.4988 32.002L25.3088 37.191C25.1099 37.3899 24.9981 37.6596 24.9981 37.941C24.9981 38.2223 25.1099 38.492 25.3088 38.691C25.5077 38.8899 25.7775 39.0016 26.0588 39.0016C26.3401 39.0016 26.6099 38.8899 26.8088 38.691L32.0018 33.498L37.1908 38.691C37.3897 38.8899 37.6595 39.0016 37.9408 39.0016C38.2221 39.0016 38.4919 38.8899 38.6908 38.691C38.8897 38.492 39.0014 38.2223 39.0014 37.941C39.0014 37.6596 38.8897 37.3899 38.6908 37.191L33.4978 31.998L38.6908 26.806C38.8847 26.6072 38.9932 26.3406 38.9932 26.063C38.9932 25.7853 38.8847 25.5187 38.6908 25.32Z" fill="#555555"/>
</g>
<defs>
<clipPath id="clip0_401_1203">
<rect width="64" height="64" fill="white"/>
</clipPath>
</defs>
</svg>
