<svg width="31" height="31" viewBox="0 0 31 31" fill="none" xmlns="http://www.w3.org/2000/svg">
<path d="M29.3512 25.9006H26.6356V23.2501C26.6356 23.0393 26.462 22.8688 26.245 22.8688H25.2282C25.0143 22.8688 24.8376 23.0393 24.8376 23.2501V25.9006H22.122C21.905 25.9006 21.7314 26.0711 21.7314 26.2819V27.2739C21.7314 27.4847 21.905 27.6552 22.122 27.6552H24.8376V30.3088C24.8376 30.5196 25.0112 30.6901 25.2282 30.6901H26.245C26.462 30.6901 26.6356 30.5196 26.6356 30.3088V27.6552H29.3512C29.5682 27.6552 29.7418 27.4847 29.7418 27.2739V26.2819C29.7449 26.0711 29.5682 25.9006 29.3512 25.9006ZM25.4049 20.7577C25.8699 20.2617 25.8451 19.4805 25.3491 19.0155C23.9448 17.7011 22.3142 16.6967 20.5534 16.0426C22.773 14.474 24.2269 11.8886 24.2269 8.96836C24.2207 4.19126 20.3364 0.310059 15.5624 0.310059C10.7884 0.310059 6.90716 4.19126 6.90716 8.96526C6.90716 11.8855 8.36106 14.474 10.5838 16.0426C5.14326 18.07 1.25586 23.3183 1.25586 29.4563C1.25586 30.1383 1.80766 30.6901 2.48966 30.6901C3.17166 30.6901 3.72346 30.1352 3.72346 29.4563C3.72346 23.0331 8.86636 17.7848 15.2524 17.6205C15.3547 17.6236 15.4601 17.6267 15.5624 17.6267C15.6647 17.6267 15.7701 17.6236 15.8724 17.6205C18.7771 17.6949 21.533 18.8233 23.6596 20.8166C24.1556 21.2785 24.9399 21.2537 25.4049 20.7577ZM15.829 15.1529C15.7422 15.1498 15.6523 15.1498 15.5624 15.1498C15.4756 15.1498 15.3888 15.1498 15.302 15.1529C12.0098 15.0165 9.37166 12.2947 9.37166 8.96836C9.37166 5.55526 12.1493 2.77766 15.5624 2.77766C18.9755 2.77766 21.7531 5.55216 21.7531 8.96836C21.7562 12.2916 19.1212 15.0134 15.829 15.1529Z" fill="#838383"/>
</svg>
