<svg width="57" height="57" viewBox="0 0 57 57" fill="none" xmlns="http://www.w3.org/2000/svg">
<g clip-path="url(#clip0_520_803)">
<g clip-path="url(#clip1_520_803)">
<circle cx="28.5" cy="28.5" r="28.5" fill="white"/>
<path d="M28.5 0C22.8632 0 17.3531 1.6715 12.6663 4.80312C7.97946 7.93474 4.32654 12.3858 2.16945 17.5935C0.0123485 22.8012 -0.552046 28.5316 0.547632 34.0601C1.64731 39.5885 4.36167 44.6667 8.34747 48.6525C12.3333 52.6383 17.4115 55.3527 22.9399 56.4524C28.4684 57.5521 34.1988 56.9877 39.4065 54.8306C44.6142 52.6735 49.0653 49.0205 52.1969 44.3337C55.3285 39.6469 57 34.1368 57 28.5C57 20.9413 53.9973 13.6922 48.6526 8.34746C43.3078 3.00267 36.0587 0 28.5 0ZM28.5 12.4687C30.6138 12.4687 32.6801 13.0956 34.4377 14.2699C36.1952 15.4443 37.5651 17.1134 38.374 19.0663C39.1829 21.0192 39.3945 23.1681 38.9822 25.2413C38.5698 27.3144 37.5519 29.2188 36.0572 30.7135C34.5625 32.2081 32.6582 33.226 30.585 33.6384C28.5119 34.0508 26.363 33.8391 24.4101 33.0302C22.4572 32.2213 20.788 30.8515 19.6137 29.0939C18.4393 27.3364 17.8125 25.27 17.8125 23.1562C17.8106 21.7522 18.0858 20.3616 18.6222 19.0641C19.1587 17.7666 19.9458 16.5877 20.9386 15.5949C21.9314 14.6021 23.1103 13.8149 24.4079 13.2785C25.7054 12.742 27.096 12.4669 28.5 12.4687ZM28.5 51.6562C25.0299 51.6565 21.6043 50.8752 18.4775 49.3704C15.3507 47.8655 12.6029 45.6758 10.4381 42.9637C15.7656 39.3426 22.0584 37.4064 28.5 37.4064C34.9416 37.4064 41.2345 39.3426 46.5619 42.9637C44.3971 45.6758 41.6494 47.8655 38.5225 49.3704C35.3957 50.8752 31.9701 51.6565 28.5 51.6562Z" fill="#A1C298"/>
</g>
</g>
<defs>
<clipPath id="clip0_520_803">
<rect width="57" height="57" fill="white"/>
</clipPath>
<clipPath id="clip1_520_803">
<rect width="57" height="57" fill="white"/>
</clipPath>
</defs>
</svg>